<svg width="240" height="352" viewBox="0 0 240 352" fill="none" xmlns="http://www.w3.org/2000/svg">
<path d="M210.053 351.286C209.494 351.286 208.935 351.074 208.506 350.651C207.64 349.796 207.632 348.402 208.486 347.537C214.274 341.68 217.433 333.92 217.384 325.686C217.334 317.452 214.081 309.731 208.225 303.944C202.413 298.202 194.727 295.046 186.564 295.046C186.5 295.046 186.437 295.046 186.373 295.047C178.139 295.096 170.418 298.349 164.631 304.206C163.776 305.072 162.383 305.079 161.518 304.225C160.652 303.37 160.644 301.976 161.498 301.112C168.113 294.417 176.937 290.699 186.346 290.643C186.42 290.642 186.493 290.642 186.565 290.642C195.893 290.642 204.677 294.249 211.319 300.812C218.013 307.426 221.731 316.25 221.788 325.66C221.845 335.07 218.233 343.939 211.619 350.632C211.188 351.068 210.62 351.286 210.053 351.286V351.286Z" fill="#D2CBC0"/>
<path d="M188.257 331.74C182.187 331.74 177.248 326.8 177.248 320.73C177.248 314.66 182.187 309.721 188.257 309.721C194.327 309.721 199.266 314.66 199.266 320.73C199.266 326.8 194.327 331.74 188.257 331.74ZM188.257 314.125C184.614 314.125 181.651 317.088 181.651 320.73C181.651 324.373 184.614 327.336 188.257 327.336C191.899 327.336 194.862 324.373 194.862 320.73C194.862 317.088 191.899 314.125 188.257 314.125Z" fill="#D2CBC0"/>
<path d="M79.7691 96.8807H17.1115C7.67631 96.8807 0 89.2044 0 79.7692V17.1115C0 7.6763 7.67633 0 17.1115 0H79.7691C89.2044 0 96.8807 7.67632 96.8807 17.1115V79.7692C96.8807 89.2044 89.2043 96.8807 79.7691 96.8807V96.8807ZM17.1115 4.40367C10.1039 4.40367 4.40367 10.1039 4.40367 17.1115V79.7692C4.40367 86.7768 10.1039 92.477 17.1115 92.477H79.7691C86.7767 92.477 92.477 86.7768 92.477 79.7692V17.1115C92.477 10.1039 86.7767 4.40367 79.7691 4.40367H17.1115Z" fill="#E6E6E6"/>
<path d="M79.7218 78.1652H41.679C29.0173 78.1652 18.7156 67.8635 18.7156 55.2019V17.1589L79.7218 78.1652Z" fill="#AC8952"/>
<path d="M222.888 233.394H160.231C150.796 233.394 143.119 225.718 143.119 216.283V153.625C143.119 144.19 150.796 136.514 160.231 136.514H222.888C232.324 136.514 240 144.19 240 153.625V216.283C240 225.718 232.324 233.394 222.888 233.394ZM160.231 140.917C153.223 140.917 147.523 146.618 147.523 153.625V216.283C147.523 223.29 153.223 228.991 160.231 228.991H222.888C229.896 228.991 235.596 223.29 235.596 216.283V153.625C235.596 146.618 229.896 140.917 222.888 140.917H160.231Z" fill="#E6E6E6"/>
<path d="M162.936 156.33V213.578H220.183L162.936 156.33Z" fill="#AC8952"/>
<path d="M188.624 119.691C191.921 107.875 191.142 95.1231 186.652 83.7245C181.847 71.5269 172.592 61.4203 161.021 55.2993C154.268 51.7268 146.86 49.5093 139.24 48.8926C137.799 48.7759 137.689 51.0197 139.131 51.1365C152.105 52.1866 164.549 58.1478 173.59 67.5007C181.936 76.1342 186.97 87.5044 188.165 99.4236C188.822 105.98 188.254 112.664 186.483 119.009C186.096 120.397 188.234 121.089 188.624 119.691V119.691Z" fill="#E6E6E6"/>
<path d="M141.7 62.595L128.747 48.9037L128.409 50.6524L146.122 43.3572C147.462 42.8054 146.445 40.8011 145.116 41.3487L127.402 48.6439C126.74 48.9168 126.592 49.8934 127.064 50.3926L140.018 64.0839C141.011 65.1334 142.695 63.6462 141.7 62.5949V62.595Z" fill="#E6E6E6"/>
<path d="M42.973 124.172C39.6759 135.988 40.4547 148.74 44.9449 160.138C49.7498 172.336 59.0053 182.442 70.5761 188.563C77.3294 192.136 84.7372 194.353 92.357 194.97C93.7983 195.087 93.9081 192.843 92.4656 192.726C79.4914 191.676 67.0484 185.715 58.0068 176.362C49.6606 167.729 44.6273 156.358 43.4324 144.439C42.7752 137.883 43.3431 131.199 45.1138 124.854C45.501 123.466 43.363 122.774 42.973 124.172V124.172Z" fill="#E6E6E6"/>
<path d="M89.8967 181.268L102.85 194.959L103.188 193.21L85.4752 200.505C84.1353 201.057 85.1519 203.062 86.4815 202.514L104.195 195.219C104.857 194.946 105.005 193.969 104.533 193.47L91.5793 179.779C90.5863 178.729 88.9022 180.217 89.8968 181.268L89.8967 181.268Z" fill="#E6E6E6"/>
</svg>
